# xmcd
#
# Track frame offsets: 
#        150
#        8920
#        18904
#        31171
#        39914
#        50048
#        60774
#        68001
#        76523
#        87597
#        95649
#        106073
#        115382
#        127039
#        136464
#        144948
#        155407
#        163991
#        175308
#        184225
#        194260
#        204995
#        213889
#        227405
#        237146
#        246990
#        255346
#        262952
#        271781
#        282086
#
# Disc length: 3902 seconds
#
# Revision: 0
# Processed by: cddbd v1.5.1PL0 Copyright (c) Steve Scherf et al.
# Submitted via: ExactAudioCopy v0.95a4
#
DISCID=8d0f3c1e
DTITLE=Various Artist - High Steppin' Daddy With The Sufflin' Shoes
DYEAR=1900
DGENRE=Country
TTITLE0=Jack Turner - First On Your List
TTITLE1=Bill (Ramblin' Man) Foster - Oh, Anna Lee
TTITLE2=Turner Brothers (Red and Lige) - Boog-Boog-Boogie
TTITLE3=Tommy Mooney with Bobby Mooney and His Automobile Babies - Bingo
TTITLE3=Boogie
TTITLE4=Tommy Mooney with Bobby Mooney and His Automobile Babies - That'
TTITLE4=s My Baby
TTITLE5=Jimmy Lauderdale and The Harmony Masters - Right Away, Quick! Qu
TTITLE5=ick!
TTITLE6=Billy Parks - Four Leaf Clover
TTITLE7=Kenny Brown and His Arkansas Ramblers  - Without A Pretty Girl
TTITLE8=Jimmy Burson - Ain't Love Something
TTITLE9=Arlie Duff - In The Big Woods
TTITLE10=Jack Turner - Stark Staring Madly In Love With You
TTITLE11=Dallas Wilson and His Western Troubadours - Hi Steppin' Daddy
TTITLE12=The Strangers - Honky Tonk Woman
TTITLE13=Bobby Barnett - Blue Day
TTITLE14=Farin West - Of Course It's Fine
TTITLE15=Evelyn White and The Radio Ranch Boys - Mind Your Own Business
TTITLE16=Gene Eufield and His Western Clad Combo - Riding Down The Prari
TTITLE16=e
TTITLE17=Danny Brockman and Golden Hill Boys - Stick Around
TTITLE18=Jimmy Lucas - You Can't Have Seconds
TTITLE19=Jimmy Cook - Two Black Eyes
TTITLE20=Cecil Campbell - Steel Guitar Jamboree (Inst.)
TTITLE21=Bob Perry - It's The Way You Are
TTITLE22=Arlie Duff - Mama You've Had Your Day
TTITLE23=Vic Thomas and His Stringbusters - You're Gonna Change (Or I'm 
TTITLE23=A-Gonna Leave)
TTITLE24=Tommy Trent - A Mile To The Mailbox
TTITLE25=Tommy and Johnny - I'll Go On
TTITLE26=Wes Holly - Shuffling Shoes
TTITLE27=Arlie Duff - You're The One For Me
TTITLE28=Dave Stogner - Oh Sweet Mam
TTITLE29=Dave Stogner - Black Cat Stomp (Inst.)
EXTD=
EXTT0=
EXTT1=
EXTT2=
EXTT3=
EXTT4=
EXTT5=
EXTT6=
EXTT7=
EXTT8=
EXTT9=
EXTT10=
EXTT11=
EXTT12=
EXTT13=
EXTT14=
EXTT15=
EXTT16=
EXTT17=
EXTT18=
EXTT19=
EXTT20=
EXTT21=
EXTT22=
EXTT23=
EXTT24=
EXTT25=
EXTT26=
EXTT27=
EXTT28=
EXTT29=
PLAYORDER=
